# xmcd CD database file
#
# Track frame offsets:
#	150
#	11555
#	28643
#	46423
#	68150
#	83360
#	107278
#	133370
#	152653
#	170290
#	179958
#	197710
#	216625
#	232115
#	244533
#	259648
#	267398
#	282848
#
# Disc length: 3991 seconds
#
# Revision: 0
# Processed by: cddbd v1.5.1PL0 Copyright (c) Steve Scherf et al.
# Submitted via: CDex 1.51
#
DISCID=010f9512
DTITLE=Svend Asussen and Eric Ericson - Encounter
DYEAR=1973
DGENRE=Jazz
TTITLE0=Oh, what a day
TTITLE1=Weisst du es noch
TTITLE2=Symphony No 7 Second movement
TTITLE3=Groovin' high
TTITLE4=Hambo om bakfoten
TTITLE5=Django
TTITLE6=Li'l darlin'
TTITLE7=Dardanella
TTITLE8=Hör ich das Liedchen klingen
TTITLE9=Dommaredansen
TTITLE10=Pampadada
TTITLE11=African folk song
TTITLE12=Sommar adjö
TTITLE13=Willst du dein Herz mir schenken
TTITLE14=Sakura
TTITLE15=Katthultsmarschen
TTITLE16=Det var en lördagaften
TTITLE17=It don't mean a thing
EXTD=YEAR: 1973
EXTT0=
EXTT1=
EXTT2=
EXTT3=
EXTT4=
EXTT5=
EXTT6=
EXTT7=
EXTT8=
EXTT9=
EXTT10=
EXTT11=
EXTT12=
EXTT13=
EXTT14=
EXTT15=
EXTT16=
EXTT17=
PLAYORDER=
